<svg width="84" height="32" viewBox="0 0 84 32" fill="none" xmlns="http://www.w3.org/2000/svg">
<path fill-rule="evenodd" clip-rule="evenodd" d="M26.3153 7.21972C27.3742 8.9066 27.5653 11.0364 27.0222 13.3028H27.0192C28.5301 15.5995 29.0853 18.1177 28.3572 20.4478C27.6017 22.8658 25.5963 24.6589 22.9021 25.6571C21.7735 28.2481 19.9926 30.1291 17.7323 30.7966C14.9896 31.6067 12.0921 30.4629 9.69833 27.9841C6.11825 28.3998 3.06002 27.4077 1.51877 24.9593C0.296083 23.0175 0.229336 20.4842 1.10918 17.8355C0.0199931 15.7967 -0.313742 13.6305 0.317321 11.6068C1.07278 9.18876 3.07822 7.39569 5.77238 6.39751C6.90101 3.80651 8.68195 1.92546 10.9422 1.25799C13.7032 0.441851 16.6218 1.60689 19.0278 4.11901C22.2195 3.95518 24.9045 4.97762 26.3153 7.21972ZM10.6358 22.432H17.9689C19.0217 22.432 19.8742 21.5521 19.8742 20.469C19.8742 19.3859 19.0217 18.506 17.9689 18.506H14.9653L19.3736 13.5516C19.8833 12.9782 20.0168 12.1469 19.7134 11.4339C19.407 10.7209 18.7244 10.2597 17.9689 10.2597H10.6358C9.58304 10.2597 8.73049 11.1396 8.73049 12.2227C8.73049 13.3058 9.58304 14.1857 10.6358 14.1857H13.6394L9.2311 19.1401C8.72139 19.7136 8.5879 20.5449 8.89129 21.2578C9.19772 21.9708 9.88036 22.432 10.6358 22.432Z" fill="#6758FF"/>
<path fill-rule="evenodd" clip-rule="evenodd" d="M71.6093 7.25916C71.0541 7.25916 70.5201 7.4867 70.1257 7.89629V7.89932C69.7313 8.30891 69.5098 8.86109 69.5098 9.44057V23.8306C69.5098 25.0351 70.4503 26.0121 71.6093 26.0121C72.7683 26.0121 73.7088 25.0351 73.7088 23.8306V20.3416H78.017C79.1214 20.3871 80.5655 20.023 81.7731 19.0188C83.0989 17.9175 84 16.182 84 13.8004C84 11.4187 83.0898 9.69846 81.7518 8.61837C80.514 7.61716 79.0971 7.31377 78.1809 7.26219C78.1414 7.25916 78.105 7.25916 78.0656 7.25916H71.6093ZM78.0686 15.9788H73.7118V11.6159H78.0019C78.3599 11.6432 78.8332 11.7767 79.176 12.0558C79.4369 12.2682 79.804 12.6748 79.804 13.7973C79.804 14.9199 79.4278 15.3871 79.1548 15.6116C78.7907 15.912 78.3477 15.9909 78.1839 15.9818C78.1444 15.9788 78.108 15.9788 78.0686 15.9788Z" fill="#6758FF"/>
<path d="M37.2831 7.3623C36.115 7.3623 35.1684 8.3271 35.1684 9.51338C35.1684 10.7027 36.115 11.6645 37.2831 11.6645H43.3419L35.578 22.3986C35.1077 23.0509 35.0349 23.9217 35.396 24.6437C35.757 25.3689 36.4852 25.8239 37.2831 25.8239H47.5227C48.6908 25.8239 49.6374 24.8622 49.6374 23.6729C49.6374 22.4836 48.6908 21.5218 47.5227 21.5218H41.4639L49.2278 10.7876C49.6981 10.1353 49.7709 9.2646 49.4098 8.54252C49.0488 7.8174 48.3206 7.3623 47.5227 7.3623H37.2831Z" fill="#6758FF"/>
<path d="M54.343 7.30467C53.1659 7.30467 52.2132 8.2816 52.2132 9.48609L52.0827 23.597C52.0827 24.8015 53.0354 25.7785 54.2126 25.7785H64.44C65.6172 25.7785 66.5699 24.8015 66.5699 23.597C66.5699 22.3926 65.6172 21.4156 64.44 21.4156H56.3424L56.3788 18.7427H63.9455C65.1015 18.7427 66.042 17.7567 66.042 16.54C66.042 15.3234 65.1045 14.3374 63.9455 14.3374H56.4365L56.4729 11.6645H64.5705C65.7477 11.6645 66.7004 10.6875 66.7004 9.48305C66.7004 8.27857 65.7477 7.30164 64.5705 7.30164H54.343V7.30467Z" fill="#6758FF"/>
</svg>
